<svg width="50" height="50" viewBox="0 0 50 50" fill="none" xmlns="http://www.w3.org/2000/svg">
<g clip-path="url(#clip0_2002_11275)">
<path d="M43.75 9.375C44.5788 9.375 45.3737 9.70424 45.9597 10.2903C46.5458 10.8763 46.875 11.6712 46.875 12.5V37.5C46.875 38.3288 46.5458 39.1237 45.9597 39.7097C45.3737 40.2958 44.5788 40.625 43.75 40.625H6.25C5.4212 40.625 4.62634 40.2958 4.04029 39.7097C3.45424 39.1237 3.125 38.3288 3.125 37.5V12.5C3.125 11.6712 3.45424 10.8763 4.04029 10.2903C4.62634 9.70424 5.4212 9.375 6.25 9.375H43.75ZM6.25 6.25C4.5924 6.25 3.00269 6.90848 1.83058 8.08058C0.65848 9.25268 0 10.8424 0 12.5L0 37.5C0 39.1576 0.65848 40.7473 1.83058 41.9194C3.00269 43.0915 4.5924 43.75 6.25 43.75H43.75C45.4076 43.75 46.9973 43.0915 48.1694 41.9194C49.3415 40.7473 50 39.1576 50 37.5V12.5C50 10.8424 49.3415 9.25268 48.1694 8.08058C46.9973 6.90848 45.4076 6.25 43.75 6.25H6.25Z" fill="black"/>
<path d="M6.25 17.1875C6.25 16.7731 6.41462 16.3757 6.70765 16.0826C7.00067 15.7896 7.3981 15.625 7.8125 15.625H14.0625C14.4769 15.625 14.8743 15.7896 15.1674 16.0826C15.4604 16.3757 15.625 16.7731 15.625 17.1875V20.3125C15.625 20.7269 15.4604 21.1243 15.1674 21.4174C14.8743 21.7104 14.4769 21.875 14.0625 21.875H7.8125C7.3981 21.875 7.00067 21.7104 6.70765 21.4174C6.41462 21.1243 6.25 20.7269 6.25 20.3125V17.1875ZM6.25 26.5625C6.25 26.1481 6.41462 25.7507 6.70765 25.4576C7.00067 25.1646 7.3981 25 7.8125 25H23.4375C23.8519 25 24.2493 25.1646 24.5424 25.4576C24.8354 25.7507 25 26.1481 25 26.5625C25 26.9769 24.8354 27.3743 24.5424 27.6674C24.2493 27.9604 23.8519 28.125 23.4375 28.125H7.8125C7.3981 28.125 7.00067 27.9604 6.70765 27.6674C6.41462 27.3743 6.25 26.9769 6.25 26.5625ZM6.25 32.8125C6.25 32.3981 6.41462 32.0007 6.70765 31.7076C7.00067 31.4146 7.3981 31.25 7.8125 31.25H10.9375C11.3519 31.25 11.7493 31.4146 12.0424 31.7076C12.3354 32.0007 12.5 32.3981 12.5 32.8125C12.5 33.2269 12.3354 33.6243 12.0424 33.9174C11.7493 34.2104 11.3519 34.375 10.9375 34.375H7.8125C7.3981 34.375 7.00067 34.2104 6.70765 33.9174C6.41462 33.6243 6.25 33.2269 6.25 32.8125ZM15.625 32.8125C15.625 32.3981 15.7896 32.0007 16.0826 31.7076C16.3757 31.4146 16.7731 31.25 17.1875 31.25H20.3125C20.7269 31.25 21.1243 31.4146 21.4174 31.7076C21.7104 32.0007 21.875 32.3981 21.875 32.8125C21.875 33.2269 21.7104 33.6243 21.4174 33.9174C21.1243 34.2104 20.7269 34.375 20.3125 34.375H17.1875C16.7731 34.375 16.3757 34.2104 16.0826 33.9174C15.7896 33.6243 15.625 33.2269 15.625 32.8125ZM25 32.8125C25 32.3981 25.1646 32.0007 25.4576 31.7076C25.7507 31.4146 26.1481 31.25 26.5625 31.25H29.6875C30.1019 31.25 30.4993 31.4146 30.7924 31.7076C31.0854 32.0007 31.25 32.3981 31.25 32.8125C31.25 33.2269 31.0854 33.6243 30.7924 33.9174C30.4993 34.2104 30.1019 34.375 29.6875 34.375H26.5625C26.1481 34.375 25.7507 34.2104 25.4576 33.9174C25.1646 33.6243 25 33.2269 25 32.8125ZM34.375 32.8125C34.375 32.3981 34.5396 32.0007 34.8326 31.7076C35.1257 31.4146 35.5231 31.25 35.9375 31.25H39.0625C39.4769 31.25 39.8743 31.4146 40.1674 31.7076C40.4604 32.0007 40.625 32.3981 40.625 32.8125C40.625 33.2269 40.4604 33.6243 40.1674 33.9174C39.8743 34.2104 39.4769 34.375 39.0625 34.375H35.9375C35.5231 34.375 35.1257 34.2104 34.8326 33.9174C34.5396 33.6243 34.375 33.2269 34.375 32.8125Z" fill="black"/>
</g>
<defs>
<clipPath id="clip0_2002_11275">
<rect width="50" height="50" fill="white"/>
</clipPath>
</defs>
</svg>
